<?xml version="1.0" encoding="utf-8"?>
<!-- Generator: Adobe Illustrator 24.3.0, SVG Export Plug-In . SVG Version: 6.00 Build 0)  -->
<svg version="1.1" id="Слой_1" xmlns="http://www.w3.org/2000/svg" xmlns:xlink="http://www.w3.org/1999/xlink" x="0px" y="0px"
	 viewBox="0 0 469.36 460.94" style="enable-background:new 0 0 469.36 460.94;" xml:space="preserve">
<style type="text/css">
	.st0{fill-rule:evenodd;clip-rule:evenodd;fill:#CE2525;}
	.st1{fill:#3F3F3F;}
</style>
<path class="st0" d="M145.84,319.6l-42.39,75.55H13.33l42.4-75.55H145.84z M408.27,319.6l42.41,75.55h-90.13l-42.41-75.55H408.27z
	 M232,8.81l139.17,245.86h-90.13L232,167.85l-49.04,86.82H92.85L232,8.81z"/>
<path class="st1" d="M375.03,265.6v17.97c0.68,0.04,1.18,0.06,1.54,0.06c2.49,0,4.41-0.74,5.76-2.23c1.35-1.47,2.03-3.78,2.03-6.89
	c0-3.09-0.68-5.34-2.03-6.77c-1.35-1.43-3.36-2.15-6.04-2.15H375.03z M375.03,285.96v11.53c0,2.25,0.14,3.66,0.42,4.24
	c0.27,0.59,0.76,1.06,1.46,1.4c0.71,0.35,2,0.52,3.88,0.52v1.13h-21.13v-1.13c1.92,0,3.22-0.18,3.91-0.54
	c0.68-0.36,1.16-0.82,1.44-1.39c0.27-0.58,0.41-1.98,0.41-4.23v-26.98c0-2.25-0.14-3.66-0.41-4.25c-0.28-0.59-0.76-1.05-1.46-1.39
	c-0.69-0.36-1.99-0.52-3.89-0.52v-1.14h18.13c5.97,0,10.25,1.07,12.84,3.19c2.6,2.12,3.89,4.78,3.89,7.98c0,2.7-0.84,5-2.51,6.93
	c-1.67,1.92-3.99,3.22-6.93,3.93C383.11,285.72,379.75,285.96,375.03,285.96z M289.15,263.21h21.46v1.14h-1.07
	c-1.61,0-2.72,0.17-3.33,0.5c-0.61,0.34-1.04,0.81-1.29,1.39c-0.25,0.6-0.39,2.08-0.39,4.45v20.36c0,3.73,0.28,6.19,0.85,7.4
	c0.57,1.2,1.49,2.2,2.77,3c1.29,0.79,2.91,1.19,4.88,1.19c2.25,0,4.17-0.5,5.75-1.52c1.59-1.02,2.78-2.41,3.56-4.19
	c0.79-1.78,1.18-4.88,1.18-9.29v-16.96c0-1.86-0.2-3.19-0.59-3.99c-0.39-0.8-0.88-1.35-1.46-1.65c-0.92-0.47-2.22-0.7-3.9-0.7v-1.14
	h14.38v1.14h-0.86c-1.16,0-2.13,0.23-2.91,0.7c-0.77,0.47-1.34,1.17-1.68,2.11c-0.26,0.66-0.4,1.83-0.4,3.53v15.79
	c0,4.89-0.32,8.42-0.96,10.58c-0.65,2.17-2.22,4.16-4.71,5.98c-2.49,1.82-5.9,2.73-10.22,2.73c-3.59,0-6.37-0.48-8.34-1.44
	c-2.67-1.31-4.56-2.98-5.67-5.03c-1.1-2.05-1.65-4.79-1.65-8.26v-20.36c0-2.39-0.13-3.87-0.4-4.46c-0.26-0.59-0.72-1.05-1.38-1.39
	c-0.65-0.36-1.85-0.51-3.61-0.49V263.21z M238.4,264.59c-3.81,0-6.7,1.95-8.69,5.83c-1.61,3.18-2.42,7.77-2.42,13.73
	c0,7.1,1.24,12.34,3.74,15.73c1.74,2.38,4.18,3.56,7.31,3.56c2.1,0,3.86-0.51,5.27-1.53c1.79-1.31,3.19-3.4,4.2-6.28
	c1.01-2.87,1.51-6.61,1.51-11.23c0-5.51-0.51-9.62-1.54-12.34c-1.03-2.73-2.32-4.66-3.91-5.79
	C242.29,265.15,240.47,264.59,238.4,264.59z M238.03,262.63c6.63-0.25,12.01,1.68,16.15,5.79c4.14,4.11,6.21,9.25,6.21,15.43
	c0,5.28-1.54,9.91-4.63,13.92c-4.09,5.32-9.87,7.98-17.33,7.98c-7.47,0-13.26-2.53-17.35-7.61c-3.22-4.01-4.85-8.76-4.85-14.26
	c0-6.18,2.1-11.33,6.3-15.44C226.73,264.32,231.89,262.38,238.03,262.63z M160.06,265.45v18.21h1.75c2.84,0,4.96-0.25,6.37-0.77
	c1.41-0.52,2.52-1.47,3.33-2.83c0.81-1.36,1.21-3.13,1.21-5.32c0-3.17-0.74-5.51-2.23-7.02c-1.48-1.52-3.86-2.27-7.16-2.27H160.06z
	 M160.06,285.84v11.66c0,2.25,0.14,3.66,0.41,4.24c0.28,0.59,0.76,1.06,1.46,1.4c0.7,0.35,2,0.52,3.9,0.52v1.13h-21.29v-1.13
	c1.93,0,3.22-0.18,3.91-0.54c0.68-0.36,1.16-0.82,1.44-1.39c0.27-0.58,0.41-1.98,0.41-4.23v-26.98c0-2.25-0.14-3.66-0.41-4.25
	c-0.28-0.59-0.76-1.05-1.46-1.39c-0.69-0.36-1.99-0.52-3.89-0.52v-1.14h19.32c5.03,0,8.71,0.36,11.04,1.05
	c2.32,0.69,4.23,1.98,5.7,3.85c1.47,1.86,2.21,4.06,2.21,6.57c0,3.07-1.11,5.6-3.32,7.61c-1.41,1.27-3.38,2.22-5.91,2.85l10,14.08
	c1.31,1.82,2.24,2.95,2.78,3.4c0.85,0.64,1.81,0.98,2.92,1.05v1.13h-13.09l-13.4-18.96H160.06z M94.04,264.59
	c-3.68,0-6.52,1.92-8.53,5.74c-1.68,3.21-2.51,7.78-2.51,13.71c0,7.11,1.26,12.38,3.77,15.82c1.76,2.4,4.19,3.59,7.28,3.59
	c3.11,0,5.53-1.17,7.26-3.53c2.51-3.37,3.77-8.44,3.77-15.21c0-6.67-0.78-11.49-2.35-14.48C100.75,266.47,97.86,264.59,94.04,264.59
	z M99.5,305.16c0.94,2.72,2.41,4.76,4.39,6.13c1.99,1.37,4.47,2.05,7.45,2.05c0.82,0,1.69-0.07,2.61-0.24v1.87
	c-3.09,0.78-5.85,1.16-8.28,1.16c-3.8,0-7.2-0.93-10.2-2.79c-2.99-1.85-5.25-4.59-6.76-8.19c-5.04-1.06-9.09-3.53-12.16-7.39
	c-3.08-3.86-4.62-8.47-4.62-13.83c0-6.22,2.09-11.39,6.26-15.5c4.17-4.12,9.46-6.17,15.89-6.17c6.4,0,11.67,2.06,15.82,6.19
	c4.15,4.13,6.23,9.3,6.23,15.49c0,5.39-1.62,10.09-4.88,14.08C108,302,104.08,304.38,99.5,305.16z"/>
<path class="st1" d="M456.08,410.54c0.67,0,1.24,0.24,1.72,0.72c0.47,0.47,0.71,1.04,0.71,1.71c0,0.67-0.24,1.24-0.71,1.72
	c-0.48,0.47-1.05,0.72-1.72,0.72c-0.67,0-1.24-0.24-1.72-0.72c-0.47-0.48-0.71-1.05-0.71-1.72c0-0.67,0.23-1.24,0.7-1.71
	C454.82,410.78,455.39,410.54,456.08,410.54 M462.57,447.85v0.82h-12.97v-0.82h1.07c1.25,0,2.15-0.37,2.72-1.1
	c0.36-0.47,0.54-1.62,0.54-3.43v-19.55c0-1.53-0.1-2.54-0.29-3.03c-0.15-0.37-0.46-0.69-0.91-0.96c-0.66-0.36-1.34-0.53-2.06-0.53
	h-1.07v-0.83h12.97v0.83h-1.1c-1.23,0-2.13,0.37-2.7,1.09c-0.37,0.48-0.56,1.62-0.56,3.43v19.55c0,1.53,0.1,2.54,0.29,3.03
	c0.15,0.37,0.47,0.69,0.94,0.96c0.64,0.36,1.32,0.54,2.03,0.54H462.57z M441.61,418.42l0.34,7.1h-0.85
	c-0.16-1.25-0.38-2.14-0.67-2.68c-0.46-0.86-1.07-1.49-1.84-1.9c-0.77-0.41-1.77-0.62-3.02-0.62h-4.27v23.12
	c0,1.86,0.21,3.02,0.6,3.48c0.56,0.62,1.44,0.94,2.61,0.94h1.05v0.82h-12.83v-0.82h1.07c1.28,0,2.19-0.39,2.72-1.17
	c0.33-0.47,0.5-1.56,0.5-3.25v-23.12h-3.64c-1.41,0-2.42,0.11-3.01,0.31c-0.78,0.28-1.44,0.83-1.99,1.63
	c-0.55,0.81-0.88,1.89-0.98,3.26h-0.85l0.36-7.1H441.61z M402.89,433.99h-20.01c0,3.32,0.82,6.31,2.48,8.99
	c1.92,3.11,4.42,4.66,7.52,4.66c3.15,0,5.68-1.55,7.58-4.66C402.07,440.32,402.89,437.33,402.89,433.99z M408.04,433.63
	c0,4.46-1.41,8.19-4.22,11.18c-2.87,3.04-6.53,4.55-10.96,4.55c-4.4,0-8.02-1.52-10.86-4.58c-2.84-3.05-4.26-6.76-4.26-11.16
	c0-0.3,0.02-0.72,0.07-1.29h25.08c-0.24-3.49-1.09-6.4-2.54-8.72c-1.8-2.89-4.3-4.33-7.5-4.33c-2.41,0-4.57,0.84-6.48,2.52
	c-1.91,1.68-3.05,3.71-3.42,6.09h-0.83l0.52-10.13h0.75c0.59,1.06,1.17,1.58,1.7,1.58c0.22,0,0.65-0.11,1.27-0.34
	c2.38-0.86,4.54-1.29,6.47-1.29c5.44,0,9.76,2.51,12.94,7.52C407.28,427.64,408.04,430.43,408.04,433.63z M352.05,431.9l11.16,11.09
	c1.83,1.83,3.39,3.08,4.68,3.74c1.29,0.66,2.59,1.04,3.88,1.13v0.82h-14.39v-0.82c0.86,0,1.48-0.14,1.87-0.44
	c0.38-0.29,0.57-0.61,0.57-0.97c0-0.36-0.08-0.68-0.21-0.96c-0.14-0.28-0.61-0.81-1.39-1.58l-10.45-10.32v9.75
	c0,1.53,0.1,2.54,0.3,3.03c0.14,0.37,0.46,0.69,0.94,0.96c0.64,0.36,1.31,0.54,2.03,0.54h1.03v0.82h-12.89v-0.82h1.07
	c1.25,0,2.15-0.37,2.73-1.1c0.36-0.47,0.53-1.62,0.53-3.43v-19.55c0-1.53-0.1-2.55-0.29-3.05c-0.15-0.36-0.46-0.67-0.91-0.94
	c-0.65-0.36-1.34-0.53-2.06-0.53h-1.07v-0.83h12.89v0.83h-1.03c-0.7,0-1.37,0.17-2.03,0.51c-0.46,0.24-0.78,0.59-0.96,1.07
	c-0.18,0.47-0.27,1.45-0.27,2.94v9.26c0.31-0.28,1.32-1.23,3.06-2.83c4.42-4.04,7.09-6.75,8.01-8.09c0.4-0.59,0.6-1.12,0.6-1.56
	c0-0.34-0.16-0.65-0.47-0.91c-0.31-0.26-0.84-0.39-1.58-0.39h-0.69v-0.83h11.11v0.83c-0.65,0.01-1.25,0.1-1.78,0.27
	c-0.53,0.16-1.19,0.48-1.96,0.95c-0.77,0.47-1.72,1.23-2.86,2.27c-0.33,0.3-1.84,1.82-4.53,4.57L352.05,431.9z M311.92,433.12
	c0.29,0,0.53,0,0.74,0.01c0.21,0.01,0.38,0.02,0.51,0.02c2.89,0,5.06-0.62,6.53-1.87c1.47-1.25,2.2-2.84,2.2-4.78
	c0-1.89-0.59-3.43-1.78-4.61c-1.18-1.18-2.75-1.77-4.7-1.77c-0.86,0-2.03,0.15-3.5,0.43V433.12z M333.41,448.67h-8.08l-10.24-14.14
	c-0.75,0.02-1.37,0.04-1.85,0.04c-0.19,0-0.4,0-0.62-0.01c-0.22-0.01-0.45-0.02-0.69-0.03v8.79c0,1.9,0.21,3.08,0.62,3.55
	c0.57,0.65,1.42,0.98,2.54,0.98h1.19v0.82h-12.96v-0.82h1.13c1.28,0,2.19-0.42,2.74-1.25c0.31-0.46,0.47-1.56,0.47-3.28v-19.55
	c0-1.9-0.21-3.08-0.62-3.54c-0.58-0.65-1.45-0.98-2.59-0.98h-1.13v-0.83h11.02c3.21,0,5.58,0.24,7.1,0.71
	c1.52,0.47,2.82,1.32,3.88,2.58c1.06,1.26,1.59,2.76,1.59,4.5c0,1.86-0.6,3.47-1.82,4.84c-1.21,1.36-3.08,2.33-5.63,2.89l6.24,8.68
	c1.42,1.99,2.66,3.32,3.68,3.97c1.03,0.65,2.37,1.07,4.02,1.25V448.67z M289.53,410.54c0.67,0,1.24,0.24,1.72,0.72
	c0.47,0.47,0.71,1.04,0.71,1.71c0,0.67-0.24,1.24-0.71,1.72c-0.48,0.47-1.05,0.72-1.72,0.72c-0.67,0-1.24-0.24-1.72-0.72
	c-0.47-0.48-0.71-1.05-0.71-1.72c0-0.67,0.23-1.24,0.7-1.71C288.27,410.78,288.84,410.54,289.53,410.54z M296.03,447.85v0.82h-12.97
	v-0.82h1.07c1.25,0,2.15-0.37,2.72-1.1c0.36-0.47,0.54-1.62,0.54-3.43v-19.55c0-1.53-0.1-2.54-0.29-3.03
	c-0.15-0.37-0.46-0.69-0.91-0.96c-0.66-0.36-1.34-0.53-2.06-0.53h-1.07v-0.83h12.97v0.83h-1.1c-1.23,0-2.13,0.37-2.69,1.09
	c-0.37,0.48-0.56,1.62-0.56,3.43v19.55c0,1.53,0.1,2.54,0.29,3.03c0.15,0.37,0.46,0.69,0.94,0.96c0.64,0.36,1.32,0.54,2.03,0.54
	H296.03z M263.52,448.31h1.33l-1.11,1.77c0.94,0.24,1.64,0.64,2.09,1.2c0.46,0.56,0.69,1.25,0.69,2.05c0,1.07-0.44,2.01-1.34,2.83
	c-0.89,0.81-2.04,1.22-3.46,1.22c-0.55,0-1.25-0.05-2.09-0.16v-0.96c0.42,0.06,0.77,0.09,1.07,0.09c0.76,0,1.4-0.25,1.92-0.75
	c0.52-0.5,0.78-1.07,0.78-1.71c0-0.45-0.17-0.84-0.51-1.17c-0.34-0.33-0.77-0.49-1.27-0.49c-0.15,0-0.34,0.02-0.59,0.05
	L263.52,448.31z M272.07,417.73v10.46h-0.82c-0.27-2.01-0.75-3.61-1.44-4.8c-0.69-1.2-1.68-2.14-2.96-2.83
	c-1.28-0.7-2.6-1.05-3.97-1.05c-1.55,0-2.82,0.47-3.84,1.42c-1.01,0.94-1.52,2.02-1.52,3.22c0,0.92,0.32,1.77,0.96,2.52
	c0.92,1.12,3.12,2.6,6.58,4.46c2.83,1.52,4.76,2.68,5.79,3.5c1.04,0.81,1.84,1.77,2.39,2.86c0.55,1.1,0.84,2.25,0.84,3.46
	c0,2.29-0.89,4.26-2.67,5.92c-1.78,1.66-4.07,2.49-6.86,2.49c-0.88,0-1.71-0.07-2.48-0.21c-0.46-0.07-1.42-0.34-2.86-0.81
	c-1.45-0.47-2.37-0.71-2.76-0.71c-0.37,0-0.66,0.11-0.88,0.34c-0.21,0.22-0.37,0.69-0.48,1.39h-0.82v-10.37h0.82
	c0.39,2.17,0.92,3.79,1.57,4.87c0.65,1.07,1.65,1.97,3,2.69c1.34,0.71,2.82,1.07,4.42,1.07c1.86,0,3.33-0.49,4.41-1.47
	c1.07-0.98,1.62-2.14,1.62-3.48c0-0.75-0.21-1.49-0.61-2.25c-0.41-0.76-1.05-1.46-1.91-2.12c-0.58-0.45-2.16-1.39-4.75-2.85
	c-2.59-1.45-4.42-2.61-5.52-3.47c-1.1-0.87-1.92-1.82-2.49-2.86c-0.56-1.04-0.85-2.19-0.85-3.44c0-2.17,0.83-4.04,2.5-5.6
	c1.67-1.57,3.79-2.35,6.36-2.35c1.61,0,3.31,0.39,5.11,1.18c0.83,0.37,1.42,0.55,1.76,0.55c0.39,0,0.71-0.11,0.95-0.34
	c0.24-0.24,0.44-0.7,0.59-1.39H272.07z M212.69,436.89l-5.13-12.22l-5.26,12.22H212.69z M213.31,438.54H201.6l-2.05,4.77
	c-0.51,1.17-0.76,2.05-0.76,2.63c0,0.46,0.22,0.86,0.66,1.21c0.44,0.35,1.38,0.58,2.85,0.68v0.82h-9.53v-0.82
	c1.26-0.23,2.08-0.52,2.45-0.88c0.76-0.71,1.6-2.16,2.52-4.35l10.65-24.89h0.78l10.53,25.16c0.85,2.03,1.62,3.34,2.31,3.94
	c0.69,0.6,1.66,0.94,2.89,1.02v0.82h-11.94v-0.82c1.2-0.06,2.02-0.27,2.44-0.61c0.43-0.34,0.64-0.75,0.64-1.25
	c0-0.65-0.3-1.68-0.9-3.1L213.31,438.54z M189.2,418.42l0.34,7.1h-0.85c-0.16-1.25-0.38-2.14-0.67-2.68
	c-0.46-0.86-1.07-1.49-1.84-1.9c-0.77-0.41-1.77-0.62-3.02-0.62h-4.26v23.12c0,1.86,0.21,3.02,0.6,3.48
	c0.56,0.62,1.44,0.94,2.61,0.94h1.05v0.82h-12.83v-0.82h1.07c1.28,0,2.19-0.39,2.72-1.17c0.33-0.47,0.49-1.56,0.49-3.25v-23.12
	h-3.64c-1.41,0-2.41,0.11-3.01,0.31c-0.78,0.28-1.44,0.83-1.99,1.63c-0.55,0.81-0.88,1.89-0.98,3.26h-0.85l0.36-7.1H189.2z
	 M139.03,433.12c0.29,0,0.53,0,0.74,0.01c0.21,0.01,0.38,0.02,0.51,0.02c2.89,0,5.06-0.62,6.53-1.87c1.47-1.25,2.2-2.84,2.2-4.78
	c0-1.89-0.59-3.43-1.77-4.61c-1.18-1.18-2.75-1.77-4.7-1.77c-0.86,0-2.03,0.15-3.5,0.43V433.12z M160.51,448.67h-8.08l-10.24-14.14
	c-0.75,0.02-1.37,0.04-1.85,0.04c-0.19,0-0.4,0-0.62-0.01c-0.22-0.01-0.45-0.02-0.69-0.03v8.79c0,1.9,0.21,3.08,0.62,3.55
	c0.57,0.65,1.42,0.98,2.54,0.98h1.19v0.82h-12.96v-0.82h1.13c1.28,0,2.19-0.42,2.74-1.25c0.31-0.46,0.47-1.56,0.47-3.28v-19.55
	c0-1.9-0.21-3.08-0.62-3.54c-0.58-0.65-1.45-0.98-2.59-0.98h-1.13v-0.83h11.02c3.21,0,5.58,0.24,7.1,0.71
	c1.52,0.47,2.82,1.32,3.88,2.58c1.06,1.26,1.59,2.76,1.59,4.5c0,1.86-0.6,3.47-1.82,4.84c-1.21,1.36-3.08,2.33-5.63,2.89l6.24,8.68
	c1.42,1.99,2.66,3.32,3.68,3.97c1.03,0.65,2.37,1.07,4.02,1.25V448.67z M107.54,419.35c-2.71,0-4.88,1.01-6.52,3.02
	c-2.03,2.5-3.05,6.15-3.05,10.97c0,4.94,1.06,8.74,3.17,11.4c1.62,2.03,3.76,3.04,6.43,3.04c2.84,0,5.19-1.11,7.04-3.33
	c1.85-2.22,2.78-5.71,2.78-10.49c0-5.17-1.02-9.03-3.06-11.58C112.68,420.37,110.42,419.35,107.54,419.35z M107.96,417.73
	c3.93,0,7.33,1.48,10.21,4.47c2.88,2.99,4.32,6.7,4.32,11.16c0,4.6-1.46,8.41-4.36,11.44c-2.9,3.04-6.41,4.55-10.53,4.55
	c-4.16,0-7.66-1.48-10.49-4.44c-2.83-2.96-4.25-6.79-4.25-11.49c0-4.81,1.64-8.72,4.9-11.76C100.61,419.04,104,417.73,107.96,417.73
	z M64.53,409.49h0.69c0.49,0.91,1.06,1.55,1.7,1.92c1.07,0.64,2.41,0.96,4.04,0.96c1.62,0,2.96-0.31,4.01-0.94
	c0.76-0.43,1.29-1.07,1.58-1.94h0.74c-0.14,1.85-0.81,3.35-2.04,4.51c-1.23,1.17-2.67,1.74-4.34,1.74c-1.65,0-3.08-0.58-4.3-1.73
	C65.38,412.86,64.7,411.36,64.53,409.49z M80.91,417.73l0.78,9.54h-0.78c-0.79-2.38-1.81-4.17-3.06-5.38
	c-1.8-1.74-4.11-2.6-6.94-2.6c-3.85,0-6.78,1.52-8.79,4.57c-1.68,2.57-2.52,5.64-2.52,9.19c0,2.89,0.56,5.52,1.67,7.9
	c1.12,2.38,2.58,4.13,4.39,5.23c1.8,1.11,3.66,1.67,5.57,1.67c1.12,0,2.19-0.14,3.24-0.43c1.04-0.28,2.04-0.7,3.01-1.25v-8.75
	c0-1.51-0.11-2.51-0.34-2.98c-0.23-0.46-0.59-0.82-1.07-1.07c-0.48-0.25-1.33-0.37-2.55-0.37v-0.85h11.71v0.85h-0.55
	c-1.17,0-1.96,0.39-2.39,1.17c-0.3,0.55-0.44,1.64-0.44,3.25v9.26c-1.71,0.92-3.4,1.6-5.06,2.03c-1.67,0.43-3.52,0.65-5.56,0.65
	c-5.84,0-10.28-1.87-13.32-5.62c-2.28-2.82-3.41-6.05-3.41-9.73c0-2.66,0.64-5.21,1.92-7.65c1.52-2.9,3.6-5.13,6.24-6.69
	c2.22-1.29,4.84-1.93,7.85-1.93c1.1,0,2.1,0.08,3.01,0.27c0.9,0.18,2.17,0.57,3.82,1.18c0.83,0.31,1.39,0.46,1.67,0.46
	c0.28,0,0.53-0.13,0.72-0.39c0.2-0.26,0.32-0.77,0.37-1.52H80.91z M46.36,447.85v0.82H33.39v-0.82h1.07c1.25,0,2.15-0.37,2.72-1.1
	c0.36-0.47,0.54-1.62,0.54-3.43v-19.55c0-1.53-0.1-2.54-0.29-3.03c-0.15-0.37-0.46-0.69-0.91-0.96c-0.66-0.36-1.34-0.53-2.06-0.53
	h-1.07v-0.83h12.97v0.83h-1.1c-1.23,0-2.13,0.37-2.69,1.09c-0.37,0.48-0.56,1.62-0.56,3.43v19.55c0,1.53,0.1,2.54,0.29,3.03
	c0.15,0.37,0.46,0.69,0.94,0.96c0.64,0.36,1.32,0.54,2.03,0.54H46.36z M22.4,417.73v10.46h-0.82c-0.27-2.01-0.75-3.61-1.44-4.8
	c-0.69-1.2-1.68-2.14-2.96-2.83c-1.28-0.7-2.6-1.05-3.97-1.05c-1.55,0-2.82,0.47-3.84,1.42c-1.01,0.94-1.52,2.02-1.52,3.22
	c0,0.92,0.32,1.77,0.96,2.52c0.92,1.12,3.12,2.6,6.58,4.46c2.83,1.52,4.76,2.68,5.79,3.5c1.04,0.81,1.84,1.77,2.39,2.86
	c0.55,1.1,0.84,2.25,0.84,3.46c0,2.29-0.89,4.26-2.67,5.92c-1.78,1.66-4.07,2.49-6.86,2.49c-0.88,0-1.71-0.07-2.48-0.21
	c-0.46-0.07-1.42-0.34-2.86-0.81c-1.45-0.47-2.37-0.71-2.76-0.71c-0.37,0-0.66,0.11-0.88,0.34c-0.21,0.22-0.37,0.69-0.48,1.39H4.6
	v-10.37h0.82c0.39,2.17,0.91,3.79,1.57,4.87c0.65,1.07,1.65,1.97,3,2.69c1.34,0.71,2.82,1.07,4.42,1.07c1.86,0,3.33-0.49,4.41-1.47
	c1.07-0.98,1.61-2.14,1.61-3.48c0-0.75-0.21-1.49-0.61-2.25c-0.41-0.76-1.05-1.46-1.91-2.12c-0.58-0.45-2.16-1.39-4.75-2.85
	c-2.59-1.45-4.42-2.61-5.52-3.47c-1.1-0.87-1.92-1.82-2.49-2.86c-0.56-1.04-0.85-2.19-0.85-3.44c0-2.17,0.83-4.04,2.5-5.6
	c1.67-1.57,3.79-2.35,6.36-2.35c1.61,0,3.31,0.39,5.11,1.18c0.83,0.37,1.42,0.55,1.76,0.55c0.39,0,0.71-0.11,0.95-0.34
	c0.24-0.24,0.44-0.7,0.59-1.39H22.4z"/>
</svg>
